<svg id="Capa_1" enable-background="new 0 0 512 512" height="512" viewBox="0 0 512 512" width="512" xmlns="http://www.w3.org/2000/svg"><g><path d="m461.652 391.4c6.073-9.612 9.604-20.983 9.604-33.169v-5.561c11.838-8.111 19.623-21.725 19.623-37.127 0-18.461-11.183-34.353-27.128-41.276v-65.698c0-98.132-79.837-177.969-177.969-177.969h-62.593c-98.132 0-177.969 79.836-177.969 177.969v66.395c-15.121 7.255-25.588 22.717-25.588 40.579 0 15.402 7.785 29.016 19.623 37.127v5.561c0 12.186 3.531 23.557 9.604 33.169h-48.859v52.925l37.076 37.075h437.849l37.075-37.075v-52.925zm-412.019-75.858c0-8.26 6.72-15.025 14.979-15.025h221.895c6.572 1.03 11.621 6.76 11.621 13.616v1.247c0 5.311.931 10.407 2.628 15.142h-236.144c-8.259 0-14.979-6.72-14.979-14.98zm396.266-15.025c8.26 0 14.979 6.765 14.979 15.026 0 8.26-6.72 14.979-14.979 14.979h-60.399c1.697-4.735 2.628-9.831 2.628-15.142v-1.247c0-7.583 6.17-13.616 13.754-13.616zm-4.723 60.005c-1.18 16.741-15.177 30-32.212 30h-307.416c-17.035 0-31.032-13.259-32.212-30zm-365.955-151.953c0-81.59 66.379-147.969 147.969-147.969h62.593c81.59 0 147.969 66.378 147.969 147.969v4.38h-358.531zm358.53 34.38v27.614l-31.868-.183c-24.126 0-43.754 19.627-43.754 43.753v1.247c0 8.271-6.729 15-15 15s-15-6.729-15-15v-1.247c0-24.126-19.628-43.753-43.754-43.753v.183h-209.154v-27.614zm48.249 188.949-19.501 19.502h-412.997l-19.502-19.502v-10.498h452z"/><path d="m240.256 122.216h30v30h-30z"/><path d="m270.256 92.216h30v30h-30z"/><path d="m210.256 92.216h30v30h-30z"/></g></svg>