<?xml version="1.0" encoding="UTF-8"?>
<svg xmlns="http://www.w3.org/2000/svg" xmlns:xlink="http://www.w3.org/1999/xlink" width="453.8pt" height="486.8pt" viewBox="0 0 453.8 486.8" version="1.1">
  <g id="surface1">
    <path style=" stroke:none;fill-rule:evenodd;fill:rgb(33.714294%,38.035583%,7.054138%);fill-opacity:1;" d="M 274.847656 485.929688 L 274.835938 485.925781 L 274.761719 485.890625 C 268.691406 484.023438 262.707031 481.835938 256.824219 479.335938 C 251.015625 476.863281 245.203125 474.039063 239.40625 470.875 C 211.378906 455.578125 185.367188 432.949219 162.554688 404.402344 L 68.078125 404.402344 L 68.078125 403.824219 C 66.902344 403.695313 65.753906 403.546875 64.640625 403.375 L 64.644531 403.355469 L 64.578125 403.332031 L 64.25 403.28125 L 63.941406 403.234375 L 63.902344 403.234375 C 62.289063 402.980469 63.046875 403.128906 62.425781 403.019531 L 59.269531 402.457031 L 58.757813 403.003906 L 55.085938 401.707031 L 53.160156 401.363281 L 53.210938 401.046875 L 52.808594 400.902344 L 48.96875 399.550781 L 48.441406 399.324219 L 36.875 394.449219 L 36.273438 394.1875 C 35.894531 393.996094 36.429688 394.257813 35.386719 393.710938 L 35.371094 393.742188 C 35.144531 393.625 35.359375 393.730469 34.488281 393.257813 L 34.484375 393.253906 C 32.941406 392.421875 31.46875 391.570313 30.0625 390.695313 C 28.714844 389.855469 27.304688 388.910156 25.84375 387.867188 C 18.988281 382.96875 12.90625 376.972656 7.789063 369.910156 C 4.382813 366.132813 2.109375 361.800781 1.042969 358.003906 C 0.300781 355.355469 0.0820313 352.75 0.398438 350.441406 C 0.953125 346.441406 2.914063 343.207031 6.347656 341.207031 C 8.082031 340.195313 10.070313 339.640625 12.296875 339.621094 L 13.253906 339.609375 C 49.246094 339.269531 85.285156 339.378906 121.316406 339.496094 C 121.023438 338.914063 120.738281 338.351563 120.46875 337.8125 C 113.53125 323.929688 107.113281 309.1875 101.242188 293.679688 L 100.601563 291.984375 L 100.601563 28.949219 L 107.121094 26.703125 L 107.136719 26.695313 L 107.140625 26.707031 C 113.621094 24.421875 120.53125 22.203125 127.851563 20.058594 C 135.332031 17.871094 142.644531 15.921875 149.757813 14.226563 C 188.199219 5.066406 231.472656 -0.0820313 277.203125 -0.0820313 L 277.222656 -0.0820313 L 277.222656 -0.046875 C 308.996094 -0.046875 339.550781 2.433594 368.089844 7.007813 C 372.9375 7.785156 377.542969 8.585938 381.910156 9.40625 C 405.390625 13.828125 427.363281 19.683594 447.359375 26.738281 L 453.800781 29.015625 L 453.800781 293.992188 L 453.160156 295.699219 L 453.160156 295.78125 C 452.214844 298.25 450.835938 301.6875 449.039063 306.082031 C 447.441406 309.992188 446.019531 313.371094 444.78125 316.210938 C 437.707031 332.453125 429.914063 347.847656 421.449219 362.28125 L 421.449219 385.59375 L 421.414063 385.59375 C 421.410156 390.785156 419.304688 395.488281 415.902344 398.890625 C 412.523438 402.269531 407.839844 404.359375 402.648438 404.363281 L 402.648438 404.402344 L 392.640625 404.402344 C 389.03125 408.925781 385.410156 413.230469 381.78125 417.300781 C 377.042969 422.621094 372.082031 427.785156 366.914063 432.777344 C 340.703125 458.125 311.417969 476.367188 280.421875 485.894531 L 277.605469 486.757813 Z M 274.847656 485.929688 " />
    <path style=" stroke:none;fill-rule:evenodd;fill:rgb(100%,100%,100%);fill-opacity:1;" d="M 390.605469 385.125 L 390.640625 385.128906 L 390.605469 385.121094 Z M 390.605469 385.125 " />
    <path style=" stroke:none;fill-rule:evenodd;fill:rgb(100%,100%,100%);fill-opacity:1;" d="M 402.1875 360.421875 C 402.183594 360.242188 402.183594 360.328125 402.183594 360.421875 Z M 402.1875 360.421875 " />
    <path style=" stroke:none;fill-rule:evenodd;fill:rgb(100%,100%,100%);fill-opacity:1;" d="M 402.183594 360.425781 L 402.1875 360.425781 L 402.1875 360.421875 L 402.183594 360.421875 Z M 402.183594 360.425781 " />
    <path style=" stroke:none;fill-rule:evenodd;fill:rgb(100%,100%,100%);fill-opacity:1;" d="M 402.1875 360.425781 L 402.183594 360.425781 L 402.183594 360.453125 C 402.191406 360.566406 402.199219 360.648438 402.1875 360.425781 Z M 402.1875 360.425781 " />
    <path style=" stroke:none;fill-rule:evenodd;fill:rgb(10.594177%,9.812927%,9.423828%);fill-opacity:1;" d="M 277.597656 476.699219 C 236.699219 464.128906 198.738281 435.4375 167.199219 394.753906 L 77.726563 394.753906 L 77.726563 394.71875 C 73.769531 394.71875 69.859375 394.421875 66.074219 393.839844 C 65.269531 393.71875 64.617188 393.609375 64.121094 393.523438 L 64.121094 393.515625 C 61.5625 393.0625 58.902344 392.441406 56.160156 391.664063 L 56.011719 391.824219 L 52.171875 390.46875 L 40.605469 385.59375 C 40.074219 385.324219 39.554688 385.054688 39.046875 384.78125 C 29.59375 379.675781 21.449219 372.605469 15.117188 363.65625 C 9.328125 357.382813 8.226563 349.269531 12.371094 349.230469 C 53.996094 348.824219 95.667969 349.03125 137.328125 349.15625 C 127.242188 330.960938 118.1875 311.261719 110.25 290.289063 L 110.25 35.820313 C 157.003906 19.320313 214.730469 9.5625 277.203125 9.5625 C 339.675781 9.5625 397.402344 19.320313 444.15625 35.824219 L 444.15625 292.34375 C 434.828125 316.671875 423.992188 339.257813 411.78125 359.75 C 411.796875 359.972656 411.804688 360.195313 411.804688 360.421875 L 411.804688 385.589844 C 411.804688 390.652344 407.703125 394.753906 402.640625 394.753906 L 390.570313 394.753906 C 389.761719 394.753906 388.976563 394.648438 388.226563 394.453125 C 356.644531 435.296875 318.597656 464.097656 277.597656 476.699219 Z M 277.597656 476.699219 " />
    <path style=" stroke:none;fill-rule:evenodd;fill:rgb(94.53125%,70.117188%,16.088867%);fill-opacity:1;" d="M 219.1875 69.003906 C 219.820313 69.695313 220.46875 70.367188 221.210938 70.804688 C 230.316406 76.183594 250.050781 85.1875 248.949219 86.214844 C 238.21875 96.214844 224.585938 84.046875 222.75 84.675781 C 219.027344 85.949219 230.773438 94.949219 237.648438 95.71875 C 240.769531 96.070313 248.789063 92.867188 259.382813 92.375 C 268.242188 91.960938 279.597656 92.574219 284.265625 96.101563 C 286.828125 98.039063 288.511719 100.683594 291.382813 102.753906 C 301.625 110.136719 312.121094 121.449219 321.894531 129.878906 C 323.050781 130.878906 321.957031 136.148438 319.722656 140.566406 C 318.628906 142.722656 316.875 144.285156 315.730469 145.804688 C 313.835938 148.320313 309.691406 143.839844 306.996094 142.207031 C 303.132813 139.867188 301.371094 135.109375 296.851563 135.015625 C 291.414063 134.90625 287.996094 142.589844 282.597656 143.234375 C 278.554688 143.71875 274.078125 137.609375 270.011719 137.714844 C 266.636719 137.800781 265.105469 141.566406 261.792969 142.207031 C 259.34375 142.683594 256.992188 140.484375 254.601563 141.179688 C 251.082031 142.203125 249.414063 147.324219 245.867188 148.242188 C 241.480469 149.378906 237.195313 142.839844 237.265625 145.292969 C 237.386719 149.582031 242.605469 153.335938 247.648438 153.082031 C 251.53125 152.882813 253.570313 147.363281 257.398438 146.667969 C 259.996094 146.195313 261.1875 149.488281 263.816406 149.230469 C 267.054688 148.914063 269.15625 145 272.410156 144.871094 C 277.804688 144.652344 281.777344 149.25 286.394531 148.976563 C 293.910156 148.527344 292.613281 142.515625 297.6875 142.046875 C 299.976563 141.835938 300.808594 146.058594 302.820313 147.179688 C 304.59375 148.167969 307.042969 147.058594 308.722656 148.207031 C 310.726563 149.578125 308.734375 154.519531 313.339844 154.363281 C 323.351563 154.023438 322.742188 141.566406 328.480469 136.144531 C 338.289063 126.878906 347.960938 116.976563 359.785156 110.484375 C 364.992188 107.625 370.566406 107.105469 376.316406 105.382813 C 382.066406 103.65625 387.984375 99.925781 393.914063 100.21875 C 399.816406 100.511719 406.21875 103.527344 411.109375 106.121094 C 413.078125 107.167969 408.832031 109.332031 406.617188 109.585938 C 401.082031 110.222656 393.972656 106.671875 388.785156 108.6875 C 375.726563 113.761719 362.433594 119.75 351.703125 129.089844 C 339.839844 139.410156 331.339844 154.125 324.632813 168.351563 C 323.542969 170.65625 329.703125 171.375 330.660156 173.738281 C 331.007813 174.59375 327.425781 176.121094 327.839844 176.945313 C 328.972656 179.21875 331.566406 180.753906 333.867188 181.820313 C 337.691406 183.59375 343.117188 183.234375 347.085938 184.644531 C 349.988281 185.675781 347.882813 189.421875 349.265625 191.058594 C 350.257813 192.238281 352.378906 191.5 353.113281 192.855469 C 354.144531 194.757813 350.054688 197.730469 353.5 199.269531 C 356.25 200.5 360.113281 198.394531 363.121094 198.246094 C 366.011719 198.101563 368.714844 196.90625 371.589844 195.679688 C 374.617188 194.390625 378.613281 195.976563 381.339844 194.140625 C 383.625 192.601563 382.574219 188.847656 384.292969 186.699219 C 385.421875 185.289063 387.851563 184.46875 389.554688 183.875 C 391.34375 183.25 393.261719 182.101563 394.558594 183.488281 C 395.707031 184.722656 393.335938 186.277344 392.375 187.660156 C 391.167969 189.398438 389.734375 190.453125 388.785156 192.34375 C 385.5 198.867188 387.808594 200.335938 386.855469 204.273438 C 386.167969 207.136719 383.117188 204.714844 383.136719 208.253906 C 383.15625 210.875 386.140625 209.945313 386.21875 212.871094 C 386.257813 214.363281 384.03125 215.535156 384.421875 216.976563 C 384.804688 218.398438 386.894531 218.585938 388.011719 219.542969 C 390.1875 221.402344 390.964844 224.164063 389.808594 226.984375 C 388.792969 229.46875 385.417969 230.222656 385.703125 233.914063 C 385.800781 235.179688 389.363281 233.675781 389.171875 236.480469 C 388.535156 245.6875 379.859375 245.363281 378.519531 248.285156 C 377.210938 251.136719 383.53125 251.691406 383.136719 256.496094 C 382.695313 261.902344 378.378906 259.824219 376.722656 262.140625 C 376.078125 263.046875 377.195313 264.46875 376.722656 265.476563 C 376.398438 266.167969 374.789063 265.746094 374.667969 266.503906 C 374.132813 269.96875 376.300781 273.796875 374.925781 277.023438 C 373.417969 280.5625 370.285156 280.8125 367.484375 281.644531 C 365.429688 282.253906 363.210938 281.054688 361.070313 281.128906 C 357.0625 281.273438 353.308594 282.792969 353.113281 287.800781 C 353.015625 290.261719 356.074219 283.84375 359.785156 284.980469 C 361.105469 285.382813 362.625 285.101563 363.121094 286.390625 C 363.753906 288.035156 362.855469 289.960938 362.351563 291.652344 C 361.65625 293.984375 365.511719 296.484375 360.042969 298.578125 C 356.929688 299.773438 353.078125 297.210938 350.035156 298.578125 C 345.78125 300.492188 343.769531 308.933594 339.128906 308.460938 C 330.457031 307.574219 323.339844 309.617188 321.039063 318.59375 C 320.5625 320.445313 319.695313 322.460938 318.730469 324.113281 C 310.273438 327.628906 306.136719 335.167969 305.773438 346.695313 C 305.921875 347.859375 288.78125 343.484375 293.839844 370.558594 C 286.628906 367.972656 274.789063 367.535156 264.972656 370.304688 C 263.453125 366.65625 267.78125 357.621094 267.664063 356.828125 C 266.695313 350.34375 257.824219 352.144531 252.523438 346.308594 C 249.527344 343.007813 247.480469 338.929688 245.339844 335.019531 C 242.605469 330.019531 239.445313 324.882813 235.332031 320.132813 C 231.121094 315.277344 228.085938 309.101563 222.757813 305.507813 C 216.804688 301.492188 212.515625 305.105469 208.132813 302.683594 C 205.25 301.089844 203.90625 297.953125 203.253906 294.730469 C 202.953125 293.230469 204.4375 291.632813 205.820313 292.421875 C 206.945313 293.0625 209.667969 294.226563 209.667969 292.933594 C 209.667969 290.726563 208.007813 288.851563 205.949219 288.058594 C 200.996094 286.15625 200.453125 291.660156 197.09375 290.5 C 193.210938 289.160156 190.621094 285.183594 190.164063 280.492188 C 189.742188 276.144531 185.847656 271.75 183.75 267.914063 C 181.992188 264.695313 185.933594 266.5 186.574219 265.476563 C 188.410156 262.542969 188.253906 255.769531 187.601563 249.824219 C 187.375 247.769531 185.136719 246.242188 185.035156 244.179688 C 184.941406 242.226563 185.5 239.285156 185.144531 237.058594 C 184.746094 234.550781 185.882813 234.007813 186.832031 233.914063 C 187.109375 233.886719 188.679688 236.203125 190.425781 235.453125 C 191.652344 234.925781 188.933594 229.730469 186.832031 228.78125 C 184.113281 227.554688 180.449219 227.210938 178.875 224.675781 C 177.34375 222.203125 179.8125 218.703125 178.875 215.949219 C 177.933594 213.175781 173.09375 210.71875 173.746094 207.484375 C 174.828125 202.105469 179.898438 204.875 182.726563 203.121094 C 185.996094 201.09375 189.765625 199.351563 191.964844 196.191406 C 192.914063 194.828125 191.230469 192.550781 191.582031 190.929688 C 191.972656 189.121094 192.414063 187.621094 194.015625 186.699219 C 197.695313 184.578125 202.289063 184.507813 206.078125 182.589844 C 210.3125 180.453125 215.347656 178.648438 217.882813 174.636719 C 218.933594 172.96875 211.039063 174.292969 211.207031 172.324219 C 211.542969 168.308594 217.648438 171.273438 218.652344 168.992188 C 222.03125 161.296875 214.046875 157.992188 211.207031 152.824219 C 207.871094 146.753906 205.085938 140.261719 200.175781 135.375 C 196.035156 131.253906 187.710938 126.140625 176.851563 122.179688 C 165.992188 118.214844 152.648438 115.183594 141.410156 112.792969 C 133.316406 111.074219 133.921875 105.835938 130.121094 105.226563 C 128.40625 104.949219 129.359375 109.425781 128.96875 111.640625 C 128.121094 116.4375 125.578125 117.902344 125.761719 121.007813 C 126.199219 128.457031 130.554688 127.890625 131.535156 133.195313 C 131.734375 134.269531 129.097656 134.535156 129.097656 135.632813 C 129.097656 138.785156 130.367188 141.867188 131.664063 144.742188 C 133.574219 148.980469 136.988281 151.535156 138.589844 155.902344 C 140.136719 160.113281 138.363281 169.066406 140.773438 170.917969 C 147.8125 176.328125 154.273438 185.191406 160.375 196.808594 C 163.574219 202.894531 167.339844 209.671875 169.636719 217.230469 C 170.542969 220.21875 167.058594 224.984375 167.457031 228.652344 C 168.429688 237.636719 174.683594 243.230469 174.382813 247.640625 C 174.230469 249.914063 168.984375 253.496094 168.355469 257.265625 C 167.453125 262.65625 171.269531 265.449219 170.664063 269.582031 C 170.1875 272.859375 168.671875 275.851563 168.226563 279.589844 C 167.570313 285.078125 168.90625 289.554688 173.359375 293.0625 C 175.234375 294.539063 182.621094 293.636719 183.757813 301.148438 C 184.550781 306.398438 183.894531 311.464844 187.605469 315.257813 C 191.191406 318.921875 194.664063 320.785156 198.980469 321.773438 C 202.558594 322.589844 206.960938 322.609375 210.308594 324.363281 C 213.117188 325.839844 206.511719 332.570313 215.316406 333.734375 C 218.628906 334.171875 221.203125 329.167969 224.941406 332.449219 C 225.957031 333.339844 224.9375 335.125 225.726563 336.101563 C 226.417969 336.96875 228.949219 337.007813 229.429688 338.097656 C 230.78125 341.164063 230.757813 344.765625 230.457031 348.105469 C 230.425781 348.449219 230.355469 348.796875 230.261719 349.144531 C 229.296875 348.578125 228.179688 348.253906 226.984375 348.253906 L 226.984375 348.238281 L 224.914063 348.238281 L 224.914063 348.253906 C 223.128906 348.257813 221.511719 348.980469 220.347656 350.144531 C 219.171875 351.316406 218.441406 352.941406 218.441406 354.730469 L 218.425781 354.730469 L 218.425781 354.988281 L 203.703125 354.988281 L 203.511719 354.777344 C 196.382813 346.988281 190.449219 338.121094 182.984375 330.65625 C 179.59375 327.265625 172.613281 326.628906 170.277344 322.445313 C 168.445313 319.164063 166.199219 317.050781 165.714844 313.308594 C 165.09375 308.5 166.367188 302.007813 164.507813 297.550781 C 162.9375 293.792969 157.777344 292.015625 156.808594 288.058594 C 154.316406 277.894531 156.933594 266.828125 154.113281 256.75 C 152.582031 251.28125 148.964844 243.628906 144.234375 243.152344 C 142.714844 243 147.476563 251.527344 148.210938 255.980469 C 149.285156 262.488281 149.085938 274 148.851563 275.742188 C 148.167969 280.855469 143.769531 272.175781 140.128906 272.148438 C 137.261719 272.125 133.757813 272.566406 131.660156 270.609375 C 128.109375 267.292969 129.058594 260.960938 124.734375 257.777344 C 123.28125 256.707031 120.722656 258.425781 119.34375 257.265625 C 119.183594 257.128906 119.023438 256.988281 118.867188 256.84375 L 118.867188 91.457031 C 148.441406 81.019531 182.410156 73.28125 219.1875 69 Z M 199.148438 252.132813 C 197.324219 249.875 194.96875 250.964844 195.8125 253.929688 C 196.671875 256.949219 199.609375 259.109375 200.433594 262.140625 C 201.535156 266.199219 199.941406 270.792969 201.457031 274.714844 C 202.195313 276.617188 204.558594 277.882813 206.589844 278.050781 C 208.199219 278.183594 209.085938 275.597656 210.695313 275.484375 C 212.417969 275.363281 213.765625 276.25 213.261719 277.28125 C 212.804688 278.21875 211.183594 278.839844 211.464844 279.847656 C 212.617188 283.957031 216.851563 287.59375 220.703125 290.109375 C 223.570313 291.984375 227.289063 292.46875 230.710938 292.421875 C 233.417969 292.382813 235.71875 289.570313 238.410156 289.855469 C 241.9375 290.226563 243.675781 293.03125 246.621094 293.703125 C 249.789063 294.425781 253.261719 294.898438 256.371094 293.960938 C 258.230469 293.398438 258.445313 290.375 260.222656 289.597656 C 262.257813 288.703125 264.6875 290.144531 266.378906 288.699219 C 269.820313 285.761719 271.878906 284.046875 272.28125 281.898438 C 272.738281 279.480469 270.109375 278.335938 268.5625 280.617188 C 267.410156 282.3125 265.351563 281.066406 263.300781 281.128906 C 261.445313 281.1875 261.953125 279.449219 262.273438 277.28125 C 262.382813 276.546875 262.605469 275.894531 264.328125 275.484375 C 269.289063 274.304688 264.800781 268.023438 267.152344 265.476563 C 268.613281 263.890625 273.542969 264.65625 273.308594 260.601563 C 273.230469 259.234375 271.378906 257.097656 271 253.929688 C 270.859375 252.746094 268.839844 255.015625 267.664063 255.210938 C 266.230469 255.449219 264.226563 256.332031 263.300781 255.210938 C 260.097656 251.332031 258.40625 245.5 253.035156 242.125 C 249.574219 239.945313 247.355469 242.664063 249.957031 243.921875 C 252.152344 244.980469 255.707031 248.980469 257.65625 254.957031 C 258.035156 256.117188 258.878906 257.410156 258.425781 258.546875 C 258.136719 259.265625 256.070313 258.03125 256.117188 258.804688 C 256.289063 261.773438 258.304688 264.367188 258.9375 267.273438 C 259.453125 269.632813 257.117188 271.816406 255.34375 270.351563 C 249.441406 265.484375 244.972656 260.242188 235.84375 259.316406 C 233.394531 259.070313 231.371094 261.71875 228.914063 261.882813 C 226.054688 262.074219 223.300781 260.652344 220.449219 260.34375 C 216.1875 259.882813 211.613281 261.117188 207.617188 259.574219 C 204.109375 258.222656 201.511719 255.054688 199.148438 252.132813 Z M 346.109375 250.363281 C 350.882813 250.058594 351.570313 255.175781 351.519531 259.894531 C 351.503906 261.503906 350.199219 262.839844 349.457031 264.273438 C 348.824219 265.5 347.625 266.511719 347.398438 267.878906 C 347.167969 269.257813 348.589844 270.667969 348.171875 272 C 347.925781 272.777344 346.335938 272.117188 345.851563 272.773438 C 342.226563 277.695313 337.585938 284.898438 329.238281 287.710938 C 322.890625 289.851563 311.394531 285.988281 309.019531 287.453125 C 303.703125 290.738281 299.441406 296.394531 297.6875 302.394531 C 296.800781 305.414063 295.824219 309.453125 296.914063 312.4375 C 298.023438 315.488281 296.113281 316.617188 295.109375 314.757813 C 293.355469 311.5 294.453125 307.5 295.109375 304.195313 C 295.664063 301.417969 295.820313 297.921875 295.109375 295.179688 C 294.058594 291.128906 289.722656 288.542969 289.957031 284.363281 C 290.207031 279.980469 294.148438 276.628906 296.65625 273.027344 C 298.710938 270.082031 296.6875 267.199219 303.222656 265.816406 C 307.007813 265.019531 311.371094 265.832031 315.199219 265.300781 C 317.714844 264.953125 317.511719 262.726563 322.15625 262.210938 C 325.078125 261.886719 327.0625 262.359375 329.625 260.921875 C 331.140625 260.074219 329.652344 257.070313 332.714844 256.027344 C 335.160156 255.199219 337.824219 255.269531 340.1875 254.226563 C 342.339844 253.273438 343.757813 250.511719 346.109375 250.363281 Z M 294.09375 239.046875 C 293.183594 243.300781 286.90625 239.925781 288.960938 235.453125 C 291.722656 229.445313 296.640625 224.464844 301.792969 220.3125 C 302.972656 219.363281 307.171875 220.472656 306.15625 221.597656 C 305.648438 222.160156 301.996094 222.042969 300.507813 223.648438 C 296.753906 227.703125 295.5 232.480469 294.09375 239.046875 Z M 314.878906 231.859375 C 313.980469 233.289063 311.304688 231.535156 312.3125 229.808594 C 313.726563 227.394531 315.070313 225.386719 317.960938 224.164063 C 320.425781 223.117188 322.707031 225.074219 320.269531 226.214844 C 317.335938 227.585938 316.164063 229.820313 314.878906 231.859375 Z M 289.605469 267.785156 C 290.914063 271.03125 293.457031 270.382813 294.351563 267.65625 C 294.929688 265.886719 294.085938 263.890625 293.453125 262.140625 C 293.15625 261.316406 291.398438 261.054688 291.65625 260.214844 C 293.109375 255.539063 296.820313 251.898438 298.585938 247.386719 C 300.035156 243.675781 298.027344 239.085938 296.53125 244.304688 C 295.894531 246.535156 295.367188 248.980469 293.835938 250.722656 C 291.136719 253.796875 287.550781 256.070313 285.882813 259.703125 C 285.335938 260.898438 286.066406 262.445313 286.78125 263.550781 C 287.082031 264.019531 288.140625 263.214844 288.449219 263.679688 C 289.238281 264.863281 289.070313 266.46875 289.605469 267.785156 Z M 260.480469 298.195313 C 259.339844 294.816406 261.925781 292.183594 265.738281 294.21875 C 267.9375 295.386719 267.355469 301.199219 266.378906 302.429688 C 263.453125 306.125 260.121094 308.050781 256.886719 310.511719 C 255.792969 311.34375 254.980469 308.675781 256.371094 307.945313 C 258.6875 306.734375 261.390625 305.347656 262.402344 302.941406 C 263.066406 301.367188 261.023438 299.8125 260.480469 298.195313 Z M 197.609375 221.851563 C 193.066406 220.65625 194.640625 217.332031 199.40625 216.464844 C 201.773438 216.035156 204.710938 215.726563 206.589844 217.234375 C 209.339844 219.441406 212.375 221.003906 213.777344 222.621094 C 217.003906 226.355469 213.03125 227.742188 209.925781 224.417969 C 208.582031 222.980469 206.976563 221.484375 205.050781 221.082031 C 202.609375 220.574219 200.019531 222.488281 197.609375 221.851563 Z M 143.464844 229.167969 C 148.167969 225.089844 141.015625 221.96875 139.488281 227.242188 C 138.105469 232.003906 138.746094 235.917969 143.335938 239.816406 C 144.328125 240.65625 144.496094 237.160156 143.976563 235.964844 C 142.824219 233.316406 141.023438 231.285156 143.464844 229.167969 Z M 135.578125 99.660156 C 133.460938 98.8125 132.53125 95.367188 135.320313 95.78125 C 139.203125 96.363281 143.0625 97.101563 146.953125 97.59375 C 150.246094 98.007813 153.675781 98.707031 157.511719 98.910156 C 163.496094 99.222656 169.730469 99.070313 172.292969 100.4375 C 182.042969 105.636719 188.917969 110.539063 195.269531 113.972656 C 200.207031 116.644531 205.054688 117.804688 209.78125 120.601563 C 214.539063 123.417969 217.546875 129.21875 222.707031 135.597656 C 223.734375 136.871094 221.242188 138.351563 220.121094 136.632813 C 216.777344 131.503906 210.386719 127.761719 204.609375 124.480469 C 200.117188 121.929688 196.007813 119.003906 191.644531 116.613281 C 185.0625 113.011719 178.230469 110.128906 171.257813 107.675781 C 167.175781 106.238281 162.75 107.0625 158.589844 105.867188 C 156.269531 105.199219 154.699219 102.929688 152.382813 102.246094 C 146.949219 100.640625 140.839844 101.765625 135.578125 99.660156 Z M 363.890625 228.011719 C 363.515625 226.25 368.984375 225.375 371.207031 223.265625 C 372.644531 221.894531 373.082031 219.480469 374.414063 218.003906 C 374.875 217.492188 376.3125 217.589844 376.464844 218.261719 C 377.007813 220.636719 376.214844 223.621094 373.898438 224.933594 C 369.664063 227.328125 364.179688 229.363281 363.890625 228.011719 Z M 377.234375 237.761719 C 380.917969 239.867188 382.078125 235.15625 378.003906 233.144531 C 375.929688 232.117188 373.507813 232.601563 371.332031 233.398438 C 367.558594 234.785156 363.953125 236.789063 360.8125 239.300781 C 359.90625 240.027344 358.679688 243 359.785156 242.636719 C 362.550781 241.730469 364.960938 239.171875 368.769531 237.507813 C 371.675781 236.234375 374.636719 236.277344 377.234375 237.761719 Z M 272.988281 464.59375 C 275.8125 457.921875 278.855469 452.15625 280.433594 445.085938 C 281.484375 440.386719 282.152344 434.734375 280.6875 430.148438 C 278.382813 422.933594 277.199219 415.726563 275.535156 408.511719 C 275.320313 407.917969 275.105469 407.324219 274.890625 406.726563 C 273.417969 406.78125 271.664063 406.765625 270.015625 406.683594 C 269.289063 406.648438 268.703125 406.613281 268.292969 406.582031 C 267.707031 406.535156 267.160156 406.480469 266.683594 406.417969 C 266.679688 406.414063 266.675781 406.410156 266.671875 406.40625 C 266.605469 406.398438 266.539063 406.390625 266.46875 406.378906 C 266.460938 406.378906 266.453125 406.378906 266.445313 406.378906 C 258.757813 405.347656 252.117188 400.226563 247.105469 394.144531 C 246.152344 392.988281 245.265625 391.808594 244.445313 390.625 C 244.4375 390.613281 244.429688 390.605469 244.421875 390.59375 C 244.421875 396.066406 244.421875 401.542969 244.421875 407.015625 C 244.421875 407.015625 244.421875 407.015625 244.421875 407.019531 C 244.417969 407.019531 244.414063 407.019531 244.410156 407.019531 C 244.40625 408.84375 243.664063 410.5 242.464844 411.695313 C 241.277344 412.882813 239.628906 413.621094 237.808594 413.625 C 237.808594 413.628906 237.808594 413.632813 237.808594 413.636719 C 237.804688 413.636719 237.800781 413.636719 237.800781 413.636719 L 237.796875 413.636719 C 237.796875 413.632813 237.796875 413.628906 237.796875 413.625 C 235.972656 413.621094 234.316406 412.878906 233.121094 411.679688 C 231.933594 410.492188 231.195313 408.84375 231.191406 407.023438 C 231.1875 407.023438 231.183594 407.023438 231.175781 407.023438 C 231.175781 407.019531 231.175781 407.015625 231.175781 407.015625 C 231.175781 402.738281 231.175781 398.464844 231.175781 394.191406 C 230.050781 395.148438 228.589844 395.726563 226.988281 395.730469 C 226.988281 395.734375 226.988281 395.738281 226.988281 395.742188 L 226.984375 395.742188 C 226.296875 395.742188 225.609375 395.742188 224.921875 395.742188 C 224.921875 395.742188 224.921875 395.742188 224.917969 395.742188 C 224.917969 395.738281 224.917969 395.734375 224.917969 395.730469 C 223.128906 395.726563 221.503906 394.996094 220.332031 393.824219 C 219.167969 392.660156 218.445313 391.042969 218.441406 389.253906 C 218.4375 389.253906 218.433594 389.253906 218.429688 389.253906 L 218.429688 389.25 C 218.429688 389.164063 218.429688 389.078125 218.429688 388.992188 C 216.527344 388.992188 214.628906 388.992188 212.730469 388.992188 C 212.800781 389.144531 212.875 389.300781 212.945313 389.453125 C 213.632813 390.226563 214.320313 391 215.003906 391.769531 C 222.070313 404.980469 229.070313 417.996094 234.066406 424.996094 C 235.433594 431.523438 235.175781 438.050781 233.808594 444.574219 C 233.726563 444.953125 233.644531 445.328125 233.5625 445.707031 C 246.28125 453.667969 259.464844 460.015625 272.988281 464.59375 Z M 141.132813 73.503906 L 141.132813 38.21875 L 162.652344 33.1875 L 162.652344 39.160156 L 147.472656 42.707031 L 147.472656 51.054688 L 160.574219 47.992188 L 160.574219 53.964844 L 147.472656 57.027344 L 147.472656 72.019531 Z M 166.316406 49.632813 C 166.316406 46.035156 166.796875 42.945313 167.765625 40.355469 C 168.488281 38.453125 169.472656 36.683594 170.722656 35.058594 C 171.972656 33.445313 173.34375 32.171875 174.828125 31.253906 C 176.8125 30.011719 179.089844 29.199219 181.679688 28.796875 C 186.363281 28.074219 190.105469 29.105469 192.917969 31.902344 C 195.726563 34.6875 197.132813 38.953125 197.132813 44.699219 C 197.132813 50.398438 195.734375 55.066406 192.945313 58.71875 C 190.15625 62.363281 186.429688 64.550781 181.769531 65.269531 C 177.042969 66 173.285156 64.980469 170.496094 62.214844 C 167.707031 59.441406 166.316406 55.246094 166.316406 49.632813 Z M 172.921875 48.375 C 172.921875 52.367188 173.757813 55.269531 175.414063 57.074219 C 177.078125 58.878906 179.1875 59.582031 181.746094 59.183594 C 184.296875 58.792969 186.398438 57.449219 188.042969 55.140625 C 189.675781 52.839844 190.496094 49.652344 190.496094 45.558594 C 190.496094 41.515625 189.699219 38.625 188.109375 36.875 C 186.511719 35.132813 184.386719 34.46875 181.746094 34.875 C 179.097656 35.285156 176.96875 36.625 175.347656 38.886719 C 173.734375 41.152344 172.921875 44.308594 172.921875 48.375 Z M 198.800781 61.933594 L 209.722656 42.472656 L 199.828125 26.550781 L 207.363281 25.824219 L 213.78125 36.546875 L 220.054688 24.605469 L 227.53125 23.882813 L 217.589844 41.980469 L 228.515625 59.074219 L 220.730469 59.824219 L 213.644531 48.304688 L 206.539063 61.191406 Z M 244.425781 57.4375 L 244.425781 22.148438 L 250.910156 22.023438 L 250.910156 35.910156 L 263.601563 35.664063 L 263.601563 21.78125 L 270.078125 21.65625 L 270.078125 56.945313 L 263.601563 57.066406 L 263.601563 41.636719 L 250.910156 41.882813 L 250.910156 57.3125 Z M 275.464844 40.109375 C 275.464844 36.511719 275.953125 33.507813 276.929688 31.085938 C 277.664063 29.308594 278.65625 27.707031 279.917969 26.304688 C 281.179688 24.90625 282.5625 23.875 284.0625 23.210938 C 286.066406 22.3125 288.367188 21.898438 290.980469 21.949219 C 295.707031 22.039063 299.488281 23.722656 302.324219 27.003906 C 305.164063 30.28125 306.582031 34.792969 306.582031 40.535156 C 306.582031 46.238281 305.171875 50.664063 302.355469 53.828125 C 299.539063 56.988281 295.773438 58.527344 291.070313 58.433594 C 286.296875 58.34375 282.503906 56.667969 279.6875 53.417969 C 276.871094 50.160156 275.464844 45.722656 275.464844 40.109375 Z M 282.136719 40 C 282.136719 43.992188 282.980469 47.042969 284.652344 49.136719 C 286.335938 51.230469 288.464844 52.296875 291.046875 52.347656 C 293.625 52.394531 295.746094 51.417969 297.402344 49.398438 C 299.054688 47.382813 299.882813 44.335938 299.882813 40.242188 C 299.882813 36.199219 299.078125 33.167969 297.472656 31.140625 C 295.855469 29.125 293.714844 28.089844 291.046875 28.039063 C 288.375 27.984375 286.222656 28.957031 284.585938 30.9375 C 282.957031 32.917969 282.136719 35.933594 282.136719 40 Z M 311.589844 23.507813 L 318.039063 24.128906 L 318.039063 43.238281 C 318.039063 46.269531 318.121094 48.25 318.277344 49.160156 C 318.554688 50.632813 319.214844 51.851563 320.25 52.824219 C 321.292969 53.804688 322.714844 54.375 324.515625 54.546875 C 326.347656 54.726563 327.730469 54.449219 328.660156 53.707031 C 329.589844 52.976563 330.148438 52.011719 330.335938 50.828125 C 330.527344 49.640625 330.617188 47.652344 330.617188 44.859375 L 330.617188 25.339844 L 337.070313 25.957031 L 337.070313 44.492188 C 337.070313 48.734375 336.898438 51.707031 336.550781 53.421875 C 336.199219 55.140625 335.558594 56.546875 334.621094 57.664063 C 333.683594 58.773438 332.425781 59.613281 330.863281 60.179688 C 329.292969 60.742188 327.238281 60.898438 324.707031 60.65625 C 321.65625 60.363281 319.34375 59.753906 317.765625 58.820313 C 316.1875 57.886719 314.945313 56.757813 314.03125 55.429688 C 313.113281 54.101563 312.511719 52.738281 312.222656 51.34375 C 311.796875 49.28125 311.589844 46.28125 311.589844 42.328125 Z M 344.042969 61.953125 L 344.042969 26.664063 L 350.285156 27.628906 L 363.289063 53.203125 L 363.289063 29.640625 L 369.253906 30.5625 L 369.253906 65.847656 L 362.808594 64.851563 L 350.003906 39.859375 L 350.003906 62.875 Z M 375.839844 32.320313 L 387.421875 35.027344 C 390.03125 35.636719 392.019531 36.324219 393.394531 37.097656 C 395.234375 38.136719 396.8125 39.585938 398.121094 41.453125 C 399.4375 43.316406 400.4375 45.453125 401.125 47.867188 C 401.804688 50.285156 402.148438 53.140625 402.148438 56.453125 C 402.148438 59.351563 401.824219 61.785156 401.183594 63.738281 C 400.402344 66.117188 399.285156 67.933594 397.820313 69.179688 C 396.726563 70.128906 395.242188 70.71875 393.371094 70.957031 C 391.976563 71.132813 390.105469 70.941406 387.757813 70.390625 L 375.839844 67.605469 Z M 382.175781 39.773438 L 382.175781 63.136719 L 386.90625 64.242188 C 388.671875 64.65625 389.953125 64.847656 390.742188 64.804688 C 391.765625 64.753906 392.617188 64.46875 393.296875 63.9375 C 393.976563 63.40625 394.527344 62.394531 394.957031 60.917969 C 395.382813 59.4375 395.601563 57.328125 395.601563 54.601563 C 395.601563 51.875 395.382813 49.734375 394.957031 48.175781 C 394.527344 46.613281 393.925781 45.328125 393.160156 44.335938 C 392.386719 43.335938 391.40625 42.554688 390.222656 41.992188 C 389.339844 41.554688 387.605469 41.042969 385.019531 40.4375 Z M 424.21875 53.160156 L 424.617188 55.933594 C 421.988281 56.246094 420.671875 57.269531 420.671875 59.003906 C 420.671875 59.855469 420.941406 60.53125 421.480469 61.023438 C 422.019531 61.519531 422.683594 61.761719 423.476563 61.761719 C 423.945313 61.761719 424.34375 61.679688 424.671875 61.507813 C 425 61.335938 425.269531 61.070313 425.480469 60.71875 C 425.691406 60.367188 426.039063 59.523438 426.539063 58.171875 C 426.976563 56.960938 427.453125 56.074219 427.96875 55.511719 C 428.480469 54.949219 429.15625 54.503906 429.996094 54.171875 C 430.832031 53.839844 431.734375 53.675781 432.695313 53.675781 C 433.816406 53.675781 434.824219 53.886719 435.726563 54.3125 C 436.621094 54.738281 437.300781 55.324219 437.761719 56.074219 C 438.214844 56.824219 438.445313 57.746094 438.445313 58.851563 C 438.445313 60.503906 437.910156 61.796875 436.832031 62.722656 C 435.757813 63.652344 434.21875 64.144531 432.214844 64.195313 L 432.035156 61.355469 C 433.140625 61.226563 433.910156 60.960938 434.351563 60.542969 C 434.785156 60.132813 435.007813 59.542969 435.007813 58.777344 C 435.007813 58.015625 434.816406 57.421875 434.433594 57.011719 C 434.050781 56.597656 433.574219 56.390625 433 56.390625 C 432.441406 56.390625 431.972656 56.578125 431.589844 56.953125 C 431.199219 57.328125 430.785156 58.191406 430.324219 59.539063 C 429.828125 60.96875 429.304688 62 428.757813 62.632813 C 428.214844 63.269531 427.503906 63.757813 426.640625 64.09375 C 425.777344 64.429688 424.726563 64.597656 423.492188 64.597656 C 421.707031 64.597656 420.207031 64.136719 418.992188 63.222656 C 417.777344 62.304688 417.167969 60.867188 417.167969 58.917969 C 417.167969 55.46875 419.519531 53.546875 424.21875 53.160156 Z M 417.53125 66.980469 L 438.097656 66.980469 L 438.097656 71.550781 C 438.097656 73.25 437.996094 74.363281 437.796875 74.886719 C 437.484375 75.722656 436.800781 76.410156 435.769531 76.953125 C 434.730469 77.496094 433.394531 77.765625 431.757813 77.765625 C 430.265625 77.765625 429.023438 77.53125 428.015625 77.0625 C 427.011719 76.597656 426.308594 76.007813 425.902344 75.304688 C 425.492188 74.605469 425.289063 73.394531 425.289063 71.675781 L 425.289063 69.816406 L 417.53125 69.816406 Z M 434.613281 69.816406 L 428.785156 69.816406 L 428.785156 71.386719 C 428.785156 72.441406 428.871094 73.15625 429.046875 73.535156 C 429.222656 73.910156 429.542969 74.222656 430.007813 74.460938 C 430.472656 74.707031 431.039063 74.828125 431.714844 74.828125 C 432.394531 74.828125 432.972656 74.703125 433.4375 74.453125 C 433.90625 74.203125 434.21875 73.894531 434.378906 73.527344 C 434.539063 73.160156 434.613281 72.382813 434.613281 71.199219 Z M 417.53125 80.105469 L 438.097656 80.105469 L 438.097656 90.550781 L 434.613281 90.550781 L 434.613281 82.9375 L 430.054688 82.9375 L 430.054688 90.011719 L 426.59375 90.011719 L 426.59375 82.9375 L 420.996094 82.9375 L 420.996094 90.804688 L 417.53125 90.804688 Z M 425.089844 102.21875 L 423.816406 104.972656 C 421.515625 104.539063 419.835938 103.828125 418.773438 102.828125 C 417.714844 101.832031 417.183594 100.601563 417.183594 99.140625 C 417.183594 97.308594 418.03125 95.820313 419.71875 94.683594 C 421.671875 93.367188 424.3125 92.710938 427.628906 92.710938 C 431.140625 92.710938 433.882813 93.371094 435.863281 94.695313 C 437.582031 95.839844 438.445313 97.378906 438.445313 99.316406 C 438.445313 100.890625 437.796875 102.210938 436.511719 103.273438 C 435.589844 104.027344 434.230469 104.585938 432.425781 104.9375 L 431.445313 102.125 C 432.5625 101.945313 433.414063 101.589844 434.007813 101.054688 C 434.601563 100.519531 434.898438 99.890625 434.898438 99.164063 C 434.898438 98.125 434.355469 97.28125 433.269531 96.625 C 432.1875 95.96875 430.398438 95.640625 427.898438 95.640625 C 425.308594 95.640625 423.464844 95.960938 422.371094 96.601563 C 421.277344 97.238281 420.730469 98.070313 420.730469 99.09375 C 420.730469 99.84375 421.078125 100.492188 421.773438 101.035156 C 422.472656 101.582031 423.578125 101.980469 425.089844 102.21875 Z M 417.53125 107.3125 L 438.097656 107.3125 L 438.097656 110.148438 L 417.53125 110.148438 Z M 417.53125 125.550781 L 417.53125 122.460938 L 422.203125 121.230469 L 422.203125 115.613281 L 417.53125 114.453125 L 417.53125 111.433594 L 438.097656 116.910156 L 438.097656 119.921875 Z M 425.664063 120.320313 L 433.296875 118.386719 L 425.664063 116.480469 Z M 417.53125 127.132813 L 437.929688 127.132813 L 437.929688 129.964844 L 420.996094 129.964844 L 420.996094 137.035156 L 417.53125 137.035156 Z M 417.53125 144.210938 L 438.097656 144.210938 L 438.097656 153.859375 L 434.613281 153.859375 L 434.613281 147.046875 L 429.75 147.046875 L 429.75 152.933594 L 426.269531 152.933594 L 426.269531 147.046875 L 417.53125 147.046875 Z M 427.6875 155.640625 C 430.136719 155.640625 432.152344 155.941406 433.738281 156.546875 C 435.324219 157.152344 436.503906 157.941406 437.28125 158.917969 C 438.058594 159.890625 438.445313 161.074219 438.445313 162.464844 C 438.445313 164.480469 437.527344 166.117188 435.683594 167.390625 C 433.839844 168.65625 431.214844 169.292969 427.8125 169.292969 C 424.375 169.292969 421.683594 168.621094 419.75 167.277344 C 418.035156 166.097656 417.183594 164.5 417.183594 162.476563 C 417.183594 160.441406 418.03125 158.832031 419.71875 157.65625 C 421.652344 156.3125 424.3125 155.640625 427.6875 155.640625 Z M 427.824219 158.566406 C 425.460938 158.566406 423.6875 158.941406 422.507813 159.6875 C 421.324219 160.441406 420.730469 161.367188 420.730469 162.476563 C 420.730469 163.59375 421.320313 164.515625 422.492188 165.25 C 423.664063 165.984375 425.464844 166.351563 427.898438 166.351563 C 430.28125 166.351563 432.042969 165.996094 433.1875 165.277344 C 434.328125 164.566406 434.898438 163.632813 434.898438 162.476563 C 434.898438 161.324219 434.324219 160.378906 433.171875 159.65625 C 432.019531 158.929688 430.238281 158.566406 427.824219 158.566406 Z M 417.53125 171.511719 L 438.097656 171.511719 L 438.097656 177.496094 C 438.097656 179.023438 437.910156 180.121094 437.539063 180.777344 C 437.171875 181.429688 436.53125 181.96875 435.621094 182.390625 C 434.707031 182.8125 433.613281 183.019531 432.34375 183.019531 C 430.738281 183.019531 429.4375 182.703125 428.457031 182.058594 C 427.476563 181.410156 426.859375 180.496094 426.609375 179.3125 C 426.082031 179.921875 425.511719 180.425781 424.890625 180.820313 C 424.269531 181.21875 423.152344 181.761719 421.542969 182.449219 L 417.53125 184.15625 L 417.53125 180.777344 L 422.007813 178.714844 C 423.621094 177.972656 424.636719 177.472656 425.042969 177.203125 C 425.449219 176.9375 425.726563 176.65625 425.886719 176.359375 C 426.039063 176.0625 426.117188 175.589844 426.117188 174.933594 L 426.117188 174.347656 L 417.53125 174.347656 Z M 429.402344 174.347656 L 429.402344 176.457031 C 429.402344 177.742188 429.46875 178.5625 429.601563 178.914063 C 429.734375 179.265625 430.007813 179.550781 430.421875 179.769531 C 430.832031 179.984375 431.382813 180.097656 432.0625 180.097656 C 432.71875 180.097656 433.246094 179.984375 433.644531 179.769531 C 434.039063 179.550781 434.3125 179.253906 434.460938 178.878906 C 434.566406 178.613281 434.613281 177.84375 434.613281 176.570313 L 434.613281 174.347656 Z M 425.089844 194.707031 L 423.816406 197.457031 C 421.515625 197.027344 419.835938 196.316406 418.773438 195.316406 C 417.714844 194.316406 417.183594 193.085938 417.183594 191.628906 C 417.183594 189.792969 418.03125 188.308594 419.71875 187.167969 C 421.671875 185.855469 424.3125 185.199219 427.628906 185.199219 C 431.140625 185.199219 433.882813 185.859375 435.863281 187.179688 C 437.582031 188.328125 438.445313 189.867188 438.445313 191.804688 C 438.445313 193.378906 437.796875 194.699219 436.511719 195.761719 C 435.589844 196.515625 434.230469 197.070313 432.425781 197.421875 L 431.445313 194.613281 C 432.5625 194.433594 433.414063 194.078125 434.007813 193.542969 C 434.601563 193.007813 434.898438 192.375 434.898438 191.652344 C 434.898438 190.613281 434.355469 189.765625 433.269531 189.109375 C 432.1875 188.457031 430.398438 188.128906 427.898438 188.128906 C 425.308594 188.128906 423.464844 188.449219 422.371094 189.085938 C 421.277344 189.726563 420.730469 190.558594 420.730469 191.582031 C 420.730469 192.332031 421.078125 192.980469 421.773438 193.523438 C 422.472656 194.070313 423.578125 194.464844 425.089844 194.707031 Z M 417.53125 199.890625 L 438.097656 199.890625 L 438.097656 210.335938 L 434.613281 210.335938 L 434.613281 202.726563 L 430.054688 202.726563 L 430.054688 209.796875 L 426.59375 209.796875 L 426.59375 202.726563 L 420.996094 202.726563 L 420.996094 210.59375 L 417.53125 210.59375 Z M 425.089844 225.015625 L 428.558594 225.015625 L 428.558594 231.136719 L 420.367188 231.136719 C 419.496094 230.519531 418.746094 229.644531 418.121094 228.515625 C 417.492188 227.382813 417.183594 226.25 417.183594 225.105469 C 417.183594 223.71875 417.589844 222.492188 418.40625 221.433594 C 419.226563 220.371094 420.453125 219.527344 422.085938 218.910156 C 423.71875 218.289063 425.632813 217.976563 427.839844 217.976563 C 430.105469 217.976563 432.039063 218.292969 433.648438 218.921875 C 435.257813 219.546875 436.457031 220.363281 437.253906 221.367188 C 438.046875 222.371094 438.445313 223.574219 438.445313 224.96875 C 438.445313 226.644531 437.933594 227.992188 436.90625 229.003906 C 435.882813 230.015625 434.382813 230.660156 432.398438 230.949219 L 431.628906 228.140625 C 432.683594 227.933594 433.496094 227.542969 434.054688 226.980469 C 434.613281 226.421875 434.898438 225.75 434.898438 224.96875 C 434.898438 223.761719 434.332031 222.777344 433.207031 222.03125 C 432.082031 221.277344 430.363281 220.90625 428.050781 220.90625 C 425.574219 220.90625 423.6875 221.3125 422.402344 222.121094 C 421.285156 222.816406 420.730469 223.761719 420.730469 224.941406 C 420.730469 225.5 420.886719 226.074219 421.199219 226.671875 C 421.515625 227.269531 421.941406 227.800781 422.480469 228.273438 L 425.089844 228.273438 Z M 417.53125 233.769531 L 438.097656 233.769531 L 438.097656 239.75 C 438.097656 241.28125 437.910156 242.378906 437.539063 243.03125 C 437.171875 243.6875 436.53125 244.226563 435.621094 244.648438 C 434.707031 245.070313 433.613281 245.277344 432.34375 245.277344 C 430.738281 245.277344 429.4375 244.957031 428.457031 244.316406 C 427.476563 243.667969 426.859375 242.753906 426.609375 241.570313 C 426.082031 242.175781 425.511719 242.679688 424.890625 243.078125 C 424.269531 243.476563 423.152344 244.019531 421.542969 244.707031 L 417.53125 246.414063 L 417.53125 243.03125 L 422.007813 240.972656 C 423.621094 240.230469 424.636719 239.726563 425.042969 239.460938 C 425.449219 239.195313 425.726563 238.914063 425.886719 238.617188 C 426.039063 238.320313 426.117188 237.847656 426.117188 237.191406 L 426.117188 236.601563 L 417.53125 236.601563 Z M 429.402344 236.601563 L 429.402344 238.714844 C 429.402344 240 429.46875 240.820313 429.601563 241.171875 C 429.734375 241.523438 430.007813 241.804688 430.421875 242.027344 C 430.832031 242.242188 431.382813 242.355469 432.0625 242.355469 C 432.71875 242.355469 433.246094 242.242188 433.644531 242.027344 C 434.039063 241.804688 434.3125 241.511719 434.460938 241.132813 C 434.566406 240.871094 434.613281 240.101563 434.613281 238.828125 L 434.613281 236.601563 Z M 427.6875 247.386719 C 430.136719 247.386719 432.152344 247.6875 433.738281 248.296875 C 435.324219 248.898438 436.503906 249.691406 437.28125 250.664063 C 438.058594 251.640625 438.445313 252.824219 438.445313 254.214844 C 438.445313 256.226563 437.527344 257.867188 435.683594 259.136719 C 433.839844 260.402344 431.214844 261.039063 427.8125 261.039063 C 424.375 261.039063 421.683594 260.367188 419.75 259.023438 C 418.035156 257.847656 417.183594 256.246094 417.183594 254.226563 C 417.183594 252.1875 418.03125 250.582031 419.71875 249.402344 C 421.652344 248.058594 424.3125 247.386719 427.6875 247.386719 Z M 427.824219 250.3125 C 425.460938 250.3125 423.6875 250.6875 422.507813 251.4375 C 421.324219 252.1875 420.730469 253.113281 420.730469 254.226563 C 420.730469 255.339844 421.320313 256.261719 422.492188 257 C 423.664063 257.734375 425.464844 258.097656 427.898438 258.097656 C 430.28125 258.097656 432.042969 257.742188 433.1875 257.027344 C 434.328125 256.316406 434.898438 255.378906 434.898438 254.226563 C 434.898438 253.070313 434.324219 252.128906 433.171875 251.40625 C 432.019531 250.675781 430.238281 250.3125 427.824219 250.3125 Z M 438.097656 263.226563 L 438.097656 266.0625 L 426.957031 266.0625 C 425.226563 266.0625 424.101563 266.09375 423.578125 266.164063 C 422.667969 266.289063 421.96875 266.589844 421.472656 267.058594 C 420.980469 267.53125 420.730469 268.15625 420.730469 268.925781 C 420.730469 269.582031 420.90625 270.117188 421.257813 270.53125 C 421.605469 270.945313 422.09375 271.230469 422.714844 271.378906 C 423.335938 271.53125 424.671875 271.609375 426.71875 271.609375 L 438.097656 271.609375 L 438.097656 274.453125 L 427.292969 274.453125 C 424.535156 274.453125 422.539063 274.328125 421.3125 274.085938 C 420.082031 273.835938 419.085938 273.285156 418.324219 272.421875 C 417.558594 271.558594 417.183594 270.421875 417.183594 269.011719 C 417.183594 267.542969 417.5 266.398438 418.128906 265.574219 C 418.757813 264.75 419.648438 264.15625 420.792969 263.785156 C 421.9375 263.410156 424.046875 263.226563 427.125 263.226563 Z M 417.53125 277.4375 L 438.097656 277.4375 L 438.097656 282.003906 C 438.097656 283.707031 437.996094 284.820313 437.796875 285.34375 C 437.484375 286.175781 436.800781 286.863281 435.769531 287.40625 C 434.730469 287.953125 433.394531 288.222656 431.757813 288.222656 C 430.265625 288.222656 429.023438 287.988281 428.015625 287.519531 C 427.011719 287.050781 426.308594 286.464844 425.902344 285.761719 C 425.492188 285.0625 425.289063 283.851563 425.289063 282.132813 L 425.289063 280.269531 L 417.53125 280.269531 Z M 434.613281 280.269531 L 428.785156 280.269531 L 428.785156 281.839844 C 428.785156 282.898438 428.871094 283.613281 429.046875 283.992188 C 429.222656 284.367188 429.542969 284.679688 430.007813 284.917969 C 430.472656 285.164063 431.039063 285.28125 431.714844 285.28125 C 432.394531 285.28125 432.972656 285.160156 433.4375 284.910156 C 433.90625 284.660156 434.21875 284.351563 434.378906 283.984375 C 434.539063 283.617188 434.613281 282.839844 434.613281 281.652344 Z M 434.613281 280.269531 " />
    <path style=" stroke:none;fill-rule:evenodd;fill:rgb(33.714294%,38.035583%,7.054138%);fill-opacity:1;" d="M 234.582031 340.046875 L 234.582031 407.015625 C 234.582031 409.160156 235.652344 410.234375 237.800781 410.234375 C 239.945313 410.234375 241.019531 409.160156 241.019531 407.015625 L 241.019531 340.046875 C 241.019531 337.898438 239.945313 336.828125 237.800781 336.828125 C 235.652344 336.828125 234.582031 337.898438 234.582031 340.046875 Z M 234.582031 340.046875 " />
    <path style=" stroke:none;fill-rule:evenodd;fill:rgb(33.714294%,38.035583%,7.054138%);fill-opacity:1;" d="M 221.832031 354.734375 L 221.832031 389.25 C 221.832031 391.308594 222.859375 392.339844 224.921875 392.339844 L 226.980469 392.339844 C 229.042969 392.339844 230.074219 391.308594 230.074219 389.25 L 230.074219 354.734375 C 230.074219 352.671875 229.042969 351.644531 226.980469 351.644531 L 224.921875 351.644531 C 222.859375 351.644531 221.832031 352.671875 221.832031 354.734375 Z M 221.832031 354.734375 " />
    <path style=" stroke:none;fill-rule:evenodd;fill:rgb(33.714294%,38.035583%,7.054138%);fill-opacity:1;" d="M 385.761719 385.589844 L 315.808594 385.589844 C 315.859375 385.328125 315.910156 385.066406 315.960938 384.796875 L 315.964844 384.78125 L 315.964844 384.769531 C 317.078125 378.804688 317.113281 372.78125 317.148438 366.875 C 317.160156 364.699219 317.171875 362.539063 317.242188 360.421875 L 385.761719 360.421875 Z M 385.761719 385.589844 " />
    <path style=" stroke:none;fill-rule:evenodd;fill:rgb(33.714294%,38.035583%,7.054138%);fill-opacity:1;" d="M 390.570313 385.589844 L 402.640625 385.589844 L 402.640625 360.421875 L 390.570313 360.421875 Z M 390.570313 385.589844 " />
    <path style=" stroke:none;fill-rule:evenodd;fill:rgb(100%,100%,100%);fill-opacity:1;" d="M 282.296875 397.886719 C 280.597656 398.125 281.21875 401.804688 282.554688 403.300781 C 283.175781 403.996094 286.585938 404.71875 288.414063 404.390625 C 299.65625 402.386719 309.714844 399.738281 312.625 384.171875 C 315.183594 370.476563 311.785156 355.792969 316.746094 344.121094 C 321.003906 334.109375 343.339844 326.511719 344.820313 325.316406 C 346.242188 324.171875 342.996094 321.601563 341.214844 321.195313 C 339.335938 320.765625 337.730469 323.109375 335.808594 323.257813 C 335.136719 323.308594 334.023438 322.160156 334.519531 321.710938 C 336.371094 320.035156 338.734375 318.632813 341.214844 318.363281 C 345.625 317.882813 347.246094 321.472656 350.617188 321.710938 C 353.183594 321.890625 354.230469 325.035156 355.640625 326.347656 C 356.796875 327.421875 358.277344 325.351563 359.632813 324.542969 C 361.476563 323.449219 363.226563 321.585938 365.171875 320.679688 C 367.171875 319.746094 370.214844 320.84375 371.609375 319.136719 C 373.980469 316.234375 377.363281 313.199219 378.308594 309.605469 C 378.824219 307.628906 375.515625 306.679688 373.929688 307.542969 C 371.128906 309.066406 368.535156 311.21875 365.429688 311.921875 C 363.703125 312.3125 359.773438 311.457031 360.019531 310.25 C 360.164063 309.527344 364.054688 309.777344 365.941406 308.574219 C 368.25 307.105469 370.128906 305.078125 372.898438 303.292969 C 374.414063 302.316406 376.773438 303.855469 378.308594 302.90625 C 380.804688 301.363281 382.285156 299.332031 382.941406 296.46875 C 384.097656 291.449219 382.347656 285.527344 383.457031 280.5 C 385.023438 273.414063 389.171875 275.117188 390.15625 272.515625 C 391.519531 268.890625 390.285156 264.742188 390.929688 260.921875 C 391.898438 255.140625 395.085938 250.273438 397.753906 246.628906 C 398.285156 245.902344 398.089844 236.945313 397.5625 235.808594 C 397.011719 234.632813 393.875 235.457031 393.695313 237.351563 C 392.835938 246.496094 383.578125 249.785156 378.792969 250.160156 C 380.042969 251.714844 383.429688 252.941406 383.136719 256.496094 C 382.695313 261.902344 378.378906 259.824219 376.722656 262.140625 C 376.078125 263.046875 377.195313 264.46875 376.722656 265.476563 C 376.398438 266.167969 374.789063 265.746094 374.667969 266.503906 L 374.660156 266.5625 C 375.597656 266.757813 376.996094 266.066406 377.535156 266.847656 C 378.894531 268.816406 378.964844 271.957031 378.5625 274.320313 C 376.832031 284.484375 370.132813 283.601563 368.003906 289.769531 C 367.203125 292.097656 372.773438 294.042969 371.609375 296.210938 C 369.503906 300.132813 364.683594 302.070313 360.535156 303.679688 C 357.15625 304.992188 352.988281 303.160156 349.714844 304.710938 C 345.929688 306.507813 344.304688 311.574219 340.445313 313.210938 C 338.039063 314.230469 335.195313 311.105469 332.714844 311.921875 C 328.328125 313.367188 324.734375 316.53125 320.886719 319.148438 C 320.390625 320.839844 319.597656 322.625 318.730469 324.113281 C 310.273438 327.628906 306.136719 335.167969 305.773438 346.695313 C 305.890625 347.617188 295.160156 345.070313 293.207031 357.429688 C 293.863281 357.667969 294.445313 357.976563 294.722656 358.542969 C 296.550781 362.28125 296.597656 372.695313 302.449219 374 C 303.085938 379.148438 300.8125 385.089844 298.457031 389.710938 C 294.609375 397.265625 286.828125 397.253906 282.296875 397.886719 Z M 185.867188 234.226563 C 185.039063 232.851563 183.8125 231.667969 182.46875 230.835938 C 180.917969 229.867188 178.738281 230.578125 177.082031 229.808594 C 171.902344 227.394531 175.527344 221.988281 173.230469 223.136719 C 170.449219 224.527344 170.375 229.695313 171.949219 232.375 C 174.203125 236.214844 179.582031 241.371094 181.1875 249.308594 C 181.574219 251.222656 180.550781 253.179688 178.875 254.1875 C 177.320313 255.117188 174.695313 252.859375 173.230469 253.929688 C 171.675781 255.066406 171.894531 257.671875 172.203125 259.574219 C 172.617188 262.105469 176.277344 264.046875 175.539063 266.503906 C 174.347656 270.480469 172.34375 269.035156 170.664063 269.589844 C 170.183594 272.863281 168.671875 275.855469 168.226563 279.589844 C 168.203125 279.757813 168.1875 279.921875 168.171875 280.089844 C 168.863281 280.0625 169.558594 280.046875 169.894531 280.875 C 170.875 283.277344 169.960938 286.316406 172.976563 287.285156 C 185.660156 291.355469 187.496094 298.722656 188.882813 303.710938 C 189.417969 305.625 198.714844 304.179688 200.6875 311.921875 C 201.132813 313.664063 197.214844 310.742188 195.8125 309.613281 C 193.820313 308.007813 190.335938 307.539063 190.425781 310.125 C 190.480469 311.828125 194.632813 315.554688 197.738281 317.054688 C 202.058594 319.136719 208.695313 317.519531 211.722656 320.390625 C 212.824219 321.4375 215.671875 321.75 216.089844 323.214844 C 216.511719 324.695313 213.546875 325.839844 214.289063 327.191406 C 215.324219 329.066406 216.503906 330.269531 218.648438 330.269531 C 220.640625 330.269531 220.941406 326.515625 224.554688 327.574219 C 228.382813 328.699219 230.929688 331.90625 233.257813 335.242188 C 234.433594 334.128906 236.03125 333.441406 237.792969 333.4375 L 237.792969 333.421875 L 237.800781 333.421875 L 237.800781 333.4375 C 239.628906 333.4375 241.285156 334.183594 242.480469 335.378906 C 243.667969 336.566406 244.40625 338.214844 244.410156 340.039063 L 244.421875 340.039063 L 244.421875 384.546875 C 244.679688 384.777344 244.914063 385.027344 245.082031 385.3125 C 249.757813 393.320313 257.558594 401.765625 266.894531 403.015625 C 270.039063 403.4375 275.511719 403.484375 277.03125 403.144531 C 278.957031 402.71875 278.828125 397.039063 276.386719 397.117188 C 264.46875 397.488281 256.683594 388.101563 255.730469 376.976563 C 255.234375 371.222656 262.972656 372.695313 262.53125 359.652344 C 262.347656 354.238281 256.667969 353.460938 254.0625 351.695313 C 252.035156 350.324219 248.792969 348.335938 249.699219 345.539063 C 249.890625 344.957031 250.511719 344.8125 251.304688 344.863281 C 248.945313 341.855469 247.175781 338.375 245.339844 335.015625 C 242.675781 330.15625 239.617188 325.160156 235.664063 320.519531 C 235.417969 321.589844 234.945313 322.621094 234.304688 322.1875 C 229.550781 318.957031 227.308594 312.582031 222.242188 309.871094 C 217.097656 307.117188 210.46875 308.703125 205.050781 306.535156 C 201.664063 305.179688 197.980469 302.972656 196.582031 299.605469 C 193.355469 291.839844 187.929688 284.890625 179.773438 280.488281 C 178.71875 279.917969 180.902344 278.375 180.414063 277.28125 C 179.777344 275.84375 177.125 275.515625 177.078125 273.945313 C 176.972656 270.320313 181.25 271.96875 183.496094 271.890625 C 184.542969 271.855469 185.75 272.390625 186.925781 272.953125 C 185.808594 271.203125 184.625 269.511719 183.75 267.914063 C 181.992188 264.691406 185.933594 266.5 186.574219 265.476563 C 188.410156 262.542969 188.253906 255.769531 187.601563 249.824219 C 187.375 247.769531 185.132813 246.242188 185.035156 244.175781 C 184.941406 242.226563 185.5 239.285156 185.144531 237.058594 C 184.882813 235.402344 185.289063 234.605469 185.867188 234.226563 Z M 248.300781 279.992188 C 249.390625 281.300781 244.371094 281.867188 239.71875 281.921875 C 238.367188 277.886719 238.320313 274.300781 239.808594 272.789063 C 243.152344 274.773438 245.953125 277.167969 248.300781 279.992188 Z M 236.925781 281.894531 C 234.953125 281.824219 233.347656 281.660156 232.789063 281.414063 C 230.628906 280.464844 228.640625 278.324219 227.8125 276.113281 C 226.71875 273.1875 226.367188 267.640625 227.328125 267.875 C 230.125 268.566406 232.6875 269.40625 235.027344 270.394531 C 234.785156 275.21875 235.332031 279.40625 236.925781 281.894531 Z M 318.367188 270.941406 C 315.074219 272.90625 312.09375 276.855469 311.773438 279.085938 C 311.425781 281.511719 316.011719 282.972656 318.753906 282.578125 L 318.878906 282.558594 C 320.71875 278.476563 320.34375 274.511719 318.828125 270.660156 C 318.675781 270.753906 318.523438 270.847656 318.367188 270.941406 Z M 322.269531 281.871094 C 325.957031 280.898438 329.472656 279.109375 331.164063 275.855469 C 333.394531 271.5625 332.070313 264.460938 327.933594 264.609375 C 325.851563 264.683594 324.320313 266.25 322.207031 268.085938 C 325.898438 270.109375 324.824219 275.476563 322.269531 281.871094 Z M 394.347656 183.292969 C 398.117188 174.527344 401.167969 168.316406 401.355469 166.296875 C 401.972656 159.8125 400.910156 153.140625 403.152344 146.410156 C 403.476563 145.4375 400.832031 145.71875 400.074219 146.410156 C 394.535156 151.480469 394.011719 161.789063 384.933594 162.832031 C 381.335938 163.246094 376.535156 162.589844 373.042969 163.003906 C 370.65625 163.289063 369.085938 164.597656 368.125 166.167969 C 366.4375 168.929688 369.382813 170.425781 371.332031 168.992188 C 372.597656 168.0625 373.933594 166.234375 375.441406 166.683594 C 377.101563 167.171875 378.855469 169.417969 378.261719 171.042969 C 377.445313 173.296875 373.679688 173.148438 372.359375 175.148438 C 371.011719 177.195313 372.492188 180.542969 370.820313 182.335938 C 368.496094 184.824219 364.460938 184.875 361.582031 186.699219 C 359.277344 188.15625 357.882813 190.910156 355.425781 192.085938 C 354.066406 192.734375 351.355469 191.3125 350.257813 191.667969 C 351.292969 191.992188 352.574219 191.863281 353.113281 192.855469 C 354.144531 194.757813 350.054688 197.730469 353.5 199.269531 C 356.25 200.5 360.113281 198.394531 363.121094 198.246094 C 366.011719 198.101563 368.714844 196.90625 371.589844 195.679688 C 374.617188 194.390625 378.613281 195.976563 381.339844 194.140625 C 383.625 192.601563 382.574219 188.847656 384.292969 186.699219 C 385.421875 185.289063 387.851563 184.46875 389.554688 183.875 C 391.25 183.28125 393.058594 182.222656 394.347656 183.292969 Z M 212.839844 173.386719 C 209.730469 173.964844 206.53125 174.292969 203.382813 174.378906 C 200.78125 174.453125 198.253906 174.511719 195.8125 173.609375 C 192.210938 172.28125 189.992188 168.910156 188.242188 167.453125 C 185.738281 165.363281 181.042969 166.664063 182.980469 169.246094 C 184.109375 170.75 186.523438 171.503906 186.832031 173.355469 C 187.003906 174.378906 184.761719 174.113281 183.753906 173.867188 C 181.484375 173.316406 178.972656 170.914063 176.695313 171.429688 C 174.292969 171.976563 172.28125 171.980469 170.664063 173.226563 C 169.378906 174.214844 169.476563 176.988281 171.179688 176.175781 C 173.109375 175.257813 175.714844 176.050781 177.851563 176.175781 C 180.003906 176.304688 181.65625 177.816406 182.726563 180.539063 C 183.414063 182.292969 182.625 184.203125 183.625 185.800781 C 184.984375 187.976563 187.101563 189.328125 189.527344 190.160156 C 190.21875 190.398438 190.910156 190.628906 191.601563 190.839844 C 191.988281 189.070313 192.441406 187.605469 194.015625 186.699219 C 197.695313 184.578125 202.289063 184.507813 206.078125 182.589844 C 210.3125 180.453125 215.347656 178.648438 217.882813 174.636719 C 218.613281 173.480469 215.042969 173.761719 212.839844 173.386719 Z M 137.027344 143.78125 C 133.429688 139.75 136.617188 136.890625 141.238281 140.171875 C 144.898438 142.765625 147.902344 145.785156 151.625 148.296875 C 156.410156 151.527344 162.261719 153.148438 166.671875 156.875 C 167.828125 157.851563 168.273438 160.40625 167.125 161.390625 C 164.777344 163.402344 160.679688 159.304688 159 163.796875 C 158.160156 166.035156 161.710938 164.949219 163.363281 165.601563 C 164.882813 166.207031 168.035156 166.25 168.328125 167.859375 C 168.785156 170.359375 165.355469 171.183594 165.167969 173.128906 C 164.984375 175.039063 165.082031 177.617188 166.671875 178.695313 C 169.570313 180.664063 174.386719 178.835938 177.058594 181.105469 C 179.34375 183.042969 177.707031 187.371094 179.617188 189.683594 C 181.089844 191.472656 185.890625 190.0625 186.6875 192.242188 C 187.515625 194.492188 184.820313 197.238281 182.925781 198.710938 C 180.84375 200.332031 176.964844 198.8125 174.949219 200.519531 C 173.640625 201.625 170.050781 206.199219 168.929688 203.828125 C 162.8125 190.890625 155.269531 178.363281 144.398438 168.613281 C 143.347656 167.667969 142.507813 166.113281 142.445313 164.699219 C 141.945313 153.484375 139.714844 146.796875 137.027344 143.78125 Z M 219.511719 385.589844 L 205.859375 385.589844 L 205.859375 358.394531 L 219.511719 358.394531 Z M 203.414063 385.589844 L 77.742188 385.589844 C 71.011719 385.589844 63.921875 384.511719 56.996094 382.394531 C 62.058594 377.492188 69.253906 373.957031 78.695313 373.542969 C 79.140625 373.523438 79.644531 373.511719 80.207031 373.507813 L 203.414063 373.507813 Z M 53.40625 381.199219 C 41.167969 376.789063 29.753906 369.097656 22.175781 358.394531 L 43.703125 358.394531 C 45.878906 362.675781 48.792969 365.828125 52.371094 368.121094 C 56.179688 370.5625 60.703125 371.992188 65.847656 372.753906 C 60.792969 374.738281 56.65625 377.710938 53.40625 381.199219 Z M 47.59375 358.394531 L 109.992188 358.394531 C 110.109375 360.203125 109.511719 362.015625 108.886719 363.824219 C 111.289063 363.683594 113.421875 361.464844 114.25 358.394531 L 120.605469 358.394531 C 120.722656 360.203125 120.125 362.015625 119.496094 363.824219 C 121.902344 363.683594 124.03125 361.464844 124.859375 358.394531 L 131.214844 358.394531 C 131.332031 360.203125 130.734375 362.015625 130.109375 363.824219 C 132.515625 363.683594 134.644531 361.464844 135.472656 358.394531 L 141.828125 358.394531 C 141.945313 360.203125 141.347656 362.015625 140.71875 363.824219 C 143.125 363.683594 145.253906 361.464844 146.085938 358.394531 L 152.441406 358.394531 C 152.558594 360.203125 151.957031 362.015625 151.332031 363.824219 C 153.738281 363.683594 155.867188 361.464844 156.695313 358.394531 L 163.050781 358.394531 C 163.167969 360.203125 162.570313 362.015625 161.941406 363.824219 C 164.347656 363.683594 166.476563 361.464844 167.308594 358.394531 L 173.664063 358.394531 C 173.78125 360.203125 173.183594 362.015625 172.554688 363.824219 C 174.960938 363.683594 177.089844 361.464844 177.917969 358.394531 L 184.273438 358.394531 C 184.390625 360.203125 183.792969 362.015625 183.167969 363.824219 C 185.570313 363.683594 187.703125 361.464844 188.53125 358.394531 L 203.414063 358.394531 L 203.414063 370.105469 L 77.742188 370.105469 C 68.082031 370.105469 60.066406 369.019531 54.203125 365.261719 C 51.585938 363.582031 49.371094 361.34375 47.59375 358.394531 Z M 47.59375 358.394531 " />
    <path style=" stroke:none;fill-rule:evenodd;fill:rgb(100%,92.576599%,0%);fill-opacity:1;" d="M 368.746094 294.265625 C 368.726563 294.28125 368.707031 294.304688 368.679688 294.335938 Z M 368.746094 294.265625 " />
    <path style=" stroke:none;fill-rule:evenodd;fill:rgb(100%,92.576599%,0%);fill-opacity:1;" d="M 375.574219 310.511719 L 375.578125 310.519531 " />
  </g>
</svg>